# xmcd CD database file generated by Grip 2.91
# 
# Track frame offsets:
#       150
#       22367
#       45357
#       87255
#       126672
# 
# Disc length: 2363 seconds
# 
# Revision: 3
# Processed by: cddbd v1.4b41PL1 Copyright (c) Steve Scherf et al.
# Submitted via: Grip 2.91
# 
DISCID=41093905
DTITLE=Joe Turner - Have No Fear, Joe Turner Is Here
DYEAR=1900
DGENRE=
TTITLE0=Rocks in My Bed
TTITLE1=So Long
TTITLE2=Howlin' Wind
TTITLE3=Woman You Must Be Crazy
TTITLE4=How Come My Dog Don't Bark
EXTD=
EXTT0=
EXTT1=
EXTT2=
EXTT3=
EXTT4=
PLAYORDER=
